<svg xmlns="http://www.w3.org/2000/svg" viewBox="0 0 129.9 129.9"><defs><style>.cls-1{fill:#fff;}</style></defs><g id="Layer_2" data-name="Layer 2"><g id="Слой_1" data-name="Слой 1"><path class="cls-1" d="M28.21,43.63l5.42.69a3.5,3.5,0,0,0,3.5-1.66A9.9,9.9,0,0,1,47,37.81l2.36.3a3.43,3.43,0,0,0,3.17-1.31l2.09-2.71a5.72,5.72,0,0,0,.17-6.75l-4.5-6.48a19.66,19.66,0,0,0-6.16-5.71A25,25,0,0,1,42,13.75l-7.91-6A65.31,65.31,0,0,0,19,19,64.51,64.51,0,0,0,.44,57.32,11.86,11.86,0,0,1,12.89,63a9.09,9.09,0,0,0,1.67,2.09l4.71,4.44a5.76,5.76,0,0,0,2.41,1.35l.55.15a11,11,0,0,1,7.64,7.61l2.53,9.11a7.54,7.54,0,0,0,1.27,2.57l7.66,10a11.08,11.08,0,0,1,2.11,4.87l2.08,12.49a.44.44,0,0,0,.15.3.4.4,0,0,0,.43.07,2.19,2.19,0,0,0,1.33-1.81,13.92,13.92,0,0,1,3.23-7.66L52.88,106a3.33,3.33,0,0,0,.62-1.14l2.27-7.4a12.43,12.43,0,0,1,4.29-6.17l6.79-5.2a1.09,1.09,0,0,0,.42-.66,1,1,0,0,0-.21-.78L62.54,79.3c-.29-.35-.57-.71-.84-1.07l-3.45-4.81a8.59,8.59,0,0,0-7.1-3.78,3.14,3.14,0,0,1-1.67-.44l-7-4.23A5.49,5.49,0,0,0,37,64.84l-3.72,2a8.69,8.69,0,0,1-11.4-3l-3.61-5.7A9.22,9.22,0,0,1,18.45,48,10.18,10.18,0,0,1,28.21,43.63Z"/><path class="cls-1" d="M124.85,84.65a9.79,9.79,0,0,0-8.58,5.87l-.41.9a10.08,10.08,0,0,1-9.29,6H99.73a4.45,4.45,0,0,1-4.49-4L95,90.74a9.7,9.7,0,0,0-4.4-7.26,5.16,5.16,0,0,1-2.36-4.43V76.32a6.7,6.7,0,0,1,2.21-5L102.05,61a10.15,10.15,0,0,0,3-10.53,10.36,10.36,0,0,0-8.66-7.29L95.2,43a7.13,7.13,0,0,1-4.48-2.38,4.59,4.59,0,0,1-.56-5.3l2.46-4.2a85.08,85.08,0,0,1,10.75-14.57L105.22,14A65.09,65.09,0,0,0,36.73,6.42l6.86,5.16a18.22,18.22,0,0,0,1.86,1.24,22.22,22.22,0,0,1,7,6.5L57,25.8a8.41,8.41,0,0,1-.25,10l-2.09,2.7A6.16,6.16,0,0,1,49,40.8l-2.36-.3A7.21,7.21,0,0,0,39.46,44a6.18,6.18,0,0,1-6.17,3l-5.42-.69a7.49,7.49,0,0,0-7.18,3.25,6.5,6.5,0,0,0-.11,7.12l3.61,5.7A6,6,0,0,0,32,64.44l3.71-2a8.22,8.22,0,0,1,8.08.2l7,4.23a.3.3,0,0,0,.21.05,11.31,11.31,0,0,1,9.37,4.91l3.45,4.81c.22.31.46.61.7.9l4.52,5.31a3.67,3.67,0,0,1-.63,5.33L61.71,93.4a9.64,9.64,0,0,0-3.35,4.82l-2.28,7.4A6,6,0,0,1,55,107.69l-2.22,2.66a11.27,11.27,0,0,0-2.62,6.19,4.86,4.86,0,0,1-3,4,3.11,3.11,0,0,1-4.3-2.42l-2.08-12.48A8.43,8.43,0,0,0,39.18,102L31.52,92a10.14,10.14,0,0,1-1.73-3.48l-2.53-9.12a8.25,8.25,0,0,0-5.74-5.72L21,73.5a8.49,8.49,0,0,1-3.56-2L12.7,67.07a12.07,12.07,0,0,1-2.14-2.69A9.15,9.15,0,0,0,.9,60l-.72.14C.06,61.73,0,63.33,0,65A65,65,0,0,0,126.89,84.56l-.43,0Z"/><path class="cls-1" d="M107.31,15.71l-1.79,2.5-.1.12A82.87,82.87,0,0,0,95,32.5l-2.44,4.18a1.92,1.92,0,0,0,.24,2.17,4.45,4.45,0,0,0,2.79,1.47l1.18.15a13.09,13.09,0,0,1,10.93,9.18A12.87,12.87,0,0,1,103.87,63L92.22,73.31a4,4,0,0,0-1.29,3v2.73A2.47,2.47,0,0,0,92,81.19a12.37,12.37,0,0,1,5.61,9.25l.27,2.7a1.77,1.77,0,0,0,1.81,1.58h6.84a7.39,7.39,0,0,0,6.81-4.39l.41-.87A12.49,12.49,0,0,1,124.72,82l1.61-.07.39,0,1-.1A65.72,65.72,0,0,0,129.9,65a64.57,64.57,0,0,0-19-45.93Q109.15,17.3,107.31,15.71Z"/></g></g></svg>