<svg xmlns="http://www.w3.org/2000/svg" viewBox="0 0 126.13 123.57"><defs><style>.cls-1{fill:#fff;}</style></defs><g id="Layer_2" data-name="Layer 2"><g id="Слой_1" data-name="Слой 1"><path class="cls-1" d="M51.79,8.81a30.5,30.5,0,0,1-20.7,8.24,16.37,16.37,0,0,0-11.46,4.73A77.61,77.61,0,0,0,2.4,47.25a11.52,11.52,0,0,0-.85,3.48L.13,67.46A34,34,0,0,0,7.05,91.09l2,2.63,2.31,3.17,8.83,12.92a31.36,31.36,0,0,0,26,13.76,32.17,32.17,0,0,0,4.39-.31l.26,0,.06,0,.15,0,4.32-1.38c3.55-1.14,6.36-2.16,8.83-3,7-2.55,10.58-3.83,19-3.33a12.66,12.66,0,0,0,10.23-4.25,23.85,23.85,0,0,1,8.89-6.22l3-1.22A29.06,29.06,0,0,0,119.65,91.5l4-6.83a16.92,16.92,0,0,0-.8-18.74l-7.33-10.06-8.81-25.46-.13-1.22A32.69,32.69,0,0,0,51.79,8.81ZM20,54.74a2.73,2.73,0,0,1,4.75,2.71,3.48,3.48,0,1,0,6,3.46v0a2.74,2.74,0,0,1,4.76,2.71h0A8.95,8.95,0,1,1,20,54.74ZM39.24,93.21a8.95,8.95,0,1,1-15.55-8.85,2.73,2.73,0,1,1,4.75,2.71,3.48,3.48,0,0,0,6.05,3.44h0a2.73,2.73,0,0,1,4.75,2.7Zm6.23-45a8.94,8.94,0,0,1-8.16-9.67,2.74,2.74,0,0,1,5.46.39.17.17,0,0,0,0,.07,3.48,3.48,0,0,0,6.93.59,2.74,2.74,0,0,1,5.45.47,9,9,0,0,1-8.9,8.19,6.79,6.79,0,0,1-.78,0ZM62.89,64.38a2.73,2.73,0,0,1-3.38,1.87h0a3.48,3.48,0,1,0-1.93,6.68,2.74,2.74,0,0,1-1.45,5.28l-.07,0A8.95,8.95,0,0,1,61,61a2.73,2.73,0,0,1,1.87,3.38Zm18,30.08A8.95,8.95,0,0,1,63.63,89.6a2.73,2.73,0,1,1,5.26,1.49A3.48,3.48,0,0,0,75.59,93h0a2.73,2.73,0,1,1,5.27,1.44v0ZM101.76,61a2.74,2.74,0,1,1,.27,5.47H102a6.58,6.58,0,0,0,.51,13.16,2.73,2.73,0,0,1,.21,5.46h-.48a12.05,12.05,0,0,1-.45-24.1ZM79.52,19.27A2.74,2.74,0,0,1,82.34,24a6.58,6.58,0,0,0,6.81,11.27A2.73,2.73,0,0,1,92,39.91,12.05,12.05,0,0,1,79.52,19.27Z"/></g></g></svg>