<svg xmlns="http://www.w3.org/2000/svg" viewBox="0 0 133.01 137.13"><defs><style>.cls-1{fill:#fff;}</style></defs><g id="Layer_2" data-name="Layer 2"><g id="Слой_1" data-name="Слой 1"><path class="cls-1" d="M87.82,81.52a12.6,12.6,0,0,1-3.34-3.25c-1.93,2.08-3.92,4.15-6,6.18C64.45,98.53,49.46,110,36.32,116.86c-8.09,4.19-15,6.31-20.24,6.31-3.6,0-6.46-1-8.45-3-4.73-4.73-3.77-14.45,2.68-27.4a54.16,54.16,0,0,1-2.43-5.45C3.64,95.13,1.08,102.07.27,108c-.91,6.68.46,11.9,4.07,15.51,8.12,8.12,22.62,3.35,33.36-2.09,13.49-6.83,29.58-19.1,44.12-33.66,2-2,4-4.12,6-6.22Z"/><path class="cls-1" d="M85,71.21a9.6,9.6,0,1,0,9.59-9.6A9.6,9.6,0,0,0,85,71.21Z"/><path class="cls-1" d="M101.62,6.2C95.81,7.07,89,9.6,81.47,13.73a54.93,54.93,0,0,1,5.43,2.44c12.92-6.45,22.62-7.4,27.35-2.67,7,7,1.42,24.74-14.57,46.49a12.44,12.44,0,0,1,3.81,2.69c8.15-11.09,13.88-21.51,16.58-30.22,3.1-10,2.25-17.48-2.52-22.26C113.86,6.51,108.5,5.16,101.62,6.2Z"/><path class="cls-1" d="M99.23,28.53A54.3,54.3,0,0,0,86.32,19l-.17-.09a53.17,53.17,0,0,0-8.27-3.51,1.21,1.21,0,0,1-.32-.11A54.2,54.2,0,0,0,35,114.43h0c12.91-6.69,27.66-18,41.54-31.91,2.23-2.23,4.41-4.51,6.52-6.8A12.33,12.33,0,0,1,94.59,58.87a12.21,12.21,0,0,1,2.34.23,135.06,135.06,0,0,0,11.56-18.2,54.34,54.34,0,0,0-9.26-12.37Zm-80.16,24a44.3,44.3,0,0,0-.9,25.62,1.37,1.37,0,1,1-2.64.71h0a47,47,0,0,1,.95-27.2,1.37,1.37,0,1,1,2.6.87Zm10.59,47.53a1.38,1.38,0,0,1-1.94,0,47.54,47.54,0,0,1-6.87-8.73,1.37,1.37,0,1,1,2.33-1.43,45.12,45.12,0,0,0,6.48,8.22,1.36,1.36,0,0,1,0,1.94Z"/><path class="cls-1" d="M113.3,53c-2.36,3.86-5.06,7.85-8.08,11.91a11.55,11.55,0,0,1,.89,1.84,12.35,12.35,0,0,1-15.75,16c-2.14,2.32-4.36,4.63-6.6,6.87C71.67,101.79,59,112,47.15,119.24A54.17,54.17,0,0,0,113.3,53Z"/><path class="cls-1" d="M4.74,16.39a8.52,8.52,0,0,1,5.36,5.37,1.38,1.38,0,0,0,1.74.87,1.36,1.36,0,0,0,.86-.87,8.54,8.54,0,0,1,5.37-5.37,1.37,1.37,0,0,0,0-2.6A8.54,8.54,0,0,1,12.7,8.42,1.37,1.37,0,0,0,11,7.55a1.39,1.39,0,0,0-.87.87,8.52,8.52,0,0,1-5.36,5.37,1.37,1.37,0,0,0-.87,1.73A1.39,1.39,0,0,0,4.74,16.39Z"/><path class="cls-1" d="M114.35,118.86A8.52,8.52,0,0,1,109,113.5a1.37,1.37,0,0,0-2.6,0,8.52,8.52,0,0,1-5.37,5.36,1.38,1.38,0,0,0,0,2.61,8.52,8.52,0,0,1,5.37,5.36,1.37,1.37,0,0,0,2.6,0,8.52,8.52,0,0,1,5.37-5.36,1.38,1.38,0,0,0,0-2.61Z"/><path class="cls-1" d="M93.35,131.27a2.93,2.93,0,1,0,2.93,2.93h0A2.94,2.94,0,0,0,93.35,131.27Z"/><path class="cls-1" d="M30.84,2.93a2.93,2.93,0,1,0-2.92,2.93A2.93,2.93,0,0,0,30.84,2.93Z"/><path class="cls-1" d="M124.18.52a1.36,1.36,0,0,0,0,1.94c4,4,6,9.33,6.09,15.9a1.39,1.39,0,0,0,1.37,1.38h0A1.38,1.38,0,0,0,133,18.33C132.92,11,130.6,5,126.12.52a1.36,1.36,0,0,0-1.94,0Z"/><path class="cls-1" d="M130.46,28.71a1.37,1.37,0,0,0-1.66,1h0c-.38,1.56-.85,3.19-1.39,4.84a1.37,1.37,0,0,0,2.58.92.64.64,0,0,0,0-.07c.56-1.71,1.05-3.4,1.46-5a1.37,1.37,0,0,0-1-1.66Z"/></g></g></svg>