<svg xmlns="http://www.w3.org/2000/svg" viewBox="0 0 138.21 143.9"><defs><style>.cls-1{fill:#fff;}</style></defs><g id="Layer_2" data-name="Layer 2"><g id="Слой_1" data-name="Слой 1"><path class="cls-1" d="M85.38,2,84.14,7.07a1.44,1.44,0,1,0,2.79.7v0l1.24-5.08A1.44,1.44,0,0,0,85.38,2Z"/><path class="cls-1" d="M135,79.71h-1.1a1.44,1.44,0,1,0,0,2.88H135a1.44,1.44,0,0,0,0-2.88Z"/><path class="cls-1" d="M123.93,11.64l-1.12,1.12a1.44,1.44,0,0,0,2,2.05h0L126,13.67a1.44,1.44,0,0,0-2-2Z"/><path class="cls-1" d="M5,115.6l-.78.49a1.44,1.44,0,1,0,1.52,2.44h0l.77-.48A1.44,1.44,0,0,0,5,115.59Z"/><path class="cls-1" d="M14.43,109.65l-4.55,2.87A1.44,1.44,0,0,0,11.4,115h0L16,112.08a1.44,1.44,0,0,0-1.54-2.43Z"/><path class="cls-1" d="M69.4,139.9A1.43,1.43,0,0,0,68,141.34v.77a1.44,1.44,0,1,0,2.88,0v-.78A1.44,1.44,0,0,0,69.4,139.9Z"/><path class="cls-1" d="M101.78,132.09a1.44,1.44,0,0,0-2.53,1.38v0l.75,1.34a1.44,1.44,0,0,0,2.52-1.4Z"/><path class="cls-1" d="M33.36,139.81a1.43,1.43,0,0,0-2,.44l-.91,1.43a1.44,1.44,0,1,0,2.41,1.57l0,0,.91-1.44a1.44,1.44,0,0,0-.45-2Z"/><path class="cls-1" d="M37.94,132.59a1.43,1.43,0,0,0-2,.44l-1.65,2.6a1.44,1.44,0,1,0,2.43,1.54l1.65-2.6a1.44,1.44,0,0,0-.45-2Z"/><path class="cls-1" d="M127,111l-2.42-1.41a1.44,1.44,0,1,0-1.45,2.48l2.42,1.42A1.44,1.44,0,1,0,127,111Z"/><path class="cls-1" d="M18.13,15.94a1.44,1.44,0,0,0-.08,2l1.82,2A1.44,1.44,0,1,0,22,18l0,0-1.83-2A1.44,1.44,0,0,0,18.13,15.94Z"/><path class="cls-1" d="M4.2,49.81A1.44,1.44,0,0,0,4.75,47L2,45.91a1.44,1.44,0,1,0-1.1,2.66L3.65,49.7A1.5,1.5,0,0,0,4.2,49.81Z"/><path class="cls-1" d="M136.24,46.2l-11.07,4.49-5.1.69a11.69,11.69,0,0,1-11.35-5,11.88,11.88,0,0,1-.71-12.6l2.49-4.63,0,0,6.6-6.6a1.44,1.44,0,0,0-2-2h0l-6.42,6.43-.13.07L104,30.21a11.64,11.64,0,0,1-12.37.87,11.8,11.8,0,0,1-6.43-10.82l.07-5.64A1.44,1.44,0,0,0,82.56,14L80,19a11.88,11.88,0,0,1-21.24,0l-2.34-4.65a.09.09,0,0,1,0-.05l-3-13.17a1.44,1.44,0,0,0-2.81.64l2.9,12.76s0,.07,0,.11l.08,5.64a11.8,11.8,0,0,1-6.43,10.82,11.64,11.64,0,0,1-12.37-.87L30.24,27l-.08-.05L26,22.38a1.44,1.44,0,1,0-2.12,1.95l4.34,4.72a.73.73,0,0,0,.09.08l2.48,4.63a11.86,11.86,0,0,1-.7,12.6,11.68,11.68,0,0,1-11.36,5l-5.1-.69-3.57-1.47A1.44,1.44,0,0,0,9,51.89l3.12,1.28.1.08,4.65,3.14a12.06,12.06,0,0,1-2.56,21.26L9,79.58a1,1,0,0,0-.28.14l-4.19.52a1.44,1.44,0,0,0,.17,2.87h.18l4.79-.6a1.55,1.55,0,0,0,.31-.07l4.92.53a11.73,11.73,0,0,1,9.84,7.64A11.87,11.87,0,0,1,22.46,103l-3.77,4.17a1.44,1.44,0,0,0,1.6,2.3l5.21-2.07a11.65,11.65,0,0,1,12.21,2.14,11.87,11.87,0,0,1,3.68,12.07L40,127.05a1.44,1.44,0,0,0,2.49,1.3l3.65-4.27a11.88,11.88,0,0,1,20.62,5.12L68,134.69a1.44,1.44,0,0,0,2.8,0l1.27-5.49a11.87,11.87,0,0,1,20.61-5.12l3.66,4.27a1.44,1.44,0,0,0,2.48-1.3l-1.41-5.45a11.85,11.85,0,0,1,3.69-12.07,11.65,11.65,0,0,1,12.21-2.14l5.2,2.07a1.44,1.44,0,0,0,1.6-2.3L116.36,103A11.87,11.87,0,0,1,114,90.6,11.74,11.74,0,0,1,123.88,83l5.57-.6a1.44,1.44,0,0,0,.34-2.78l-5.26-1.93A12.05,12.05,0,0,1,122,56.39l4.65-3.14.09-.08,10.61-4.3a1.44,1.44,0,0,0-1.08-2.67ZM69.41,111.86a37.37,37.37,0,1,1,37.37-37.37A37.37,37.37,0,0,1,69.41,111.86Z"/><path class="cls-1" d="M69.41,40a34.5,34.5,0,1,0,34.49,34.5A34.5,34.5,0,0,0,69.41,40ZM87.52,54.78a1.44,1.44,0,0,1-2,.2h0a22.75,22.75,0,0,0-1.94-1.45,1.44,1.44,0,0,1,1.58-2.41l0,0c.74.5,1.47,1,2.16,1.62a1.44,1.44,0,0,1,.2,2Zm8.41,16.15a1.42,1.42,0,0,1-1.67-1.14h0a24.92,24.92,0,0,0-3.85-9.4,1.44,1.44,0,0,1,2.39-1.6,27.9,27.9,0,0,1,4.29,10.46,1.43,1.43,0,0,1-1.14,1.68Z"/></g></g></svg>