<svg xmlns="http://www.w3.org/2000/svg" viewBox="0 0 129.04 91.06"><defs><style>.cls-1{fill:#fff;}</style></defs><g id="Layer_2" data-name="Layer 2"><g id="Слой_1" data-name="Слой 1"><path class="cls-1" d="M34,85.16c1.05.31,2.1.58,3.16.83V76.26c-1.06-.3-2.11-.61-3.16-1Z"/><path class="cls-1" d="M45.56,87.28c1,.08,2.1.14,3.16.16V78.62c-1.06-.14-2.11-.3-3.16-.47Z"/><path class="cls-1" d="M28.42,20.1c-1.09.46-2.18.95-3.25,1.46a63.78,63.78,0,0,1,4.65,23.78,63.69,63.69,0,0,1-4.48,23.71c1.08.52,2.17,1,3.27,1.47a66.25,66.25,0,0,0-.19-50.42Z"/><path class="cls-1" d="M39.76,86.53c1.05.19,2.11.35,3.16.49V77.66c-1.06-.21-2.11-.45-3.16-.71Z"/><path class="cls-1" d="M101.38,0A25.53,25.53,0,0,0,79.81,13.89l1.91.52a28,28,0,0,1,19.66-9.18Z"/><path class="cls-1" d="M101.38,15.73a25.52,25.52,0,0,0-9.52,2.32A78.73,78.73,0,0,1,101.38,23Z"/><path class="cls-1" d="M22.8,22.74A78.76,78.76,0,0,0,3.52,36.82a11.89,11.89,0,0,0-.06,16.83l.06.07A78.82,78.82,0,0,0,23,67.88a61.37,61.37,0,0,0,4.22-22.53,61.21,61.21,0,0,0-4.38-22.61Z"/><path class="cls-1" d="M101.38,7.86a25.66,25.66,0,0,0-16.85,7.41c1.39.45,2.76.94,4.13,1.47a28.17,28.17,0,0,1,12.72-3.65Z"/><path class="cls-1" d="M101.38,75.33V67.55a86.15,86.15,0,0,1-10.13,5.17A25.55,25.55,0,0,0,101.38,75.33Z"/><path class="cls-1" d="M84.14,75.39a25.48,25.48,0,0,0,17.24,7.81V78A28.23,28.23,0,0,1,88.1,74C86.8,74.49,85.47,75,84.14,75.39Z"/><path class="cls-1" d="M51.35,78.91v8.53c1,0,2.11-.08,3.16-.16V79.15l-.47,0C53.14,79.07,52.24,79,51.35,78.91Z"/><path class="cls-1" d="M100.81,45.27a2.89,2.89,0,0,1,2.89-2.9h10.53a19.36,19.36,0,0,0-7.35-12.49,78.84,78.84,0,0,0-47.7-16c-1.66,0-3.31,0-5,.15a78.79,78.79,0,0,0-23.33,5.09,68.93,68.93,0,0,1,.19,52.37,79.18,79.18,0,0,0,23.14,5c1.66.1,3.32.16,5,.16a78.92,78.92,0,0,0,47.7-16,19.36,19.36,0,0,0,7.35-12.49H103.7a2.89,2.89,0,0,1-2.89-2.89Z"/><path class="cls-1" d="M81.34,76.23l-1.76.47a25.36,25.36,0,0,0,21.8,14.36V85.83A28.27,28.27,0,0,1,81.34,76.23Z"/><path class="cls-1" d="M57.14,79.26V87c1.06-.13,2.11-.29,3.16-.48V79.28H59.18q-1,0-2,0Z"/><path class="cls-1" d="M62.94,86c1.06-.24,2.11-.52,3.16-.82V79c-1,.08-2.11.15-3.16.2Z"/><path class="cls-1" d="M127.72,44h-24a1.32,1.32,0,0,0,0,2.63h24a1.32,1.32,0,1,0,0-2.63Z"/></g></g></svg>