<svg xmlns="http://www.w3.org/2000/svg" viewBox="0 0 175.5 168.41"><defs><style>.cls-1{fill:#fff;}</style></defs><g id="Layer_2" data-name="Layer 2"><g id="Слой_1" data-name="Слой 1"><path class="cls-1" d="M169.14,80.4l-35.46,25.9,13.44,41.92a15.42,15.42,0,0,1-23.78,17.17L87.93,139.53,52.1,165.43a15.42,15.42,0,0,1-23.68-17.32L42.19,106.3,6.42,80.44a15.42,15.42,0,0,1,9-27.92H59.66l13.4-41.81A15.19,15.19,0,0,1,87.69,0h.06A15.19,15.19,0,0,1,102.4,10.6l13.8,41.92h43.85a15.42,15.42,0,0,1,9.09,27.88Z"/></g></g></svg>